<mxfile host="app.diagrams.net" agent="Mozilla/5.0 (Macintosh; Intel Mac OS X 10_15_7) AppleWebKit/537.36 (KHTML, like Gecko) Chrome/137.0.0.0 Safari/537.36" version="26.2.14">
  <diagram name="Page-1" id="9L2meRk_JBLG6YlEUMpU">
    <mxGraphModel dx="1183" dy="915" grid="1" gridSize="10" guides="1" tooltips="1" connect="1" arrows="1" fold="1" page="1" pageScale="1" pageWidth="850" pageHeight="600" math="0" shadow="0">
      <root>
        <mxCell id="0" />
        <mxCell id="1" parent="0" />
        <mxCell id="-ovvbeKDPaPcIJPVTbLh-205" value="" style="shape=cylinder3;whiteSpace=wrap;html=1;boundedLbl=1;backgroundOutline=1;size=3.111111111111086;fillColor=#f5f5f5;fontColor=#333333;strokeColor=#666666;" vertex="1" parent="1">
          <mxGeometry x="527.5" y="930" width="10" height="20" as="geometry" />
        </mxCell>
        <mxCell id="-ovvbeKDPaPcIJPVTbLh-1" value="" style="sketch=0;pointerEvents=1;shadow=0;dashed=0;html=1;strokeColor=none;fillColor=#505050;labelPosition=center;verticalLabelPosition=bottom;verticalAlign=top;outlineConnect=0;align=center;shape=mxgraph.office.devices.hard_disk;" vertex="1" parent="1">
          <mxGeometry x="160" y="160" width="30" height="30" as="geometry" />
        </mxCell>
        <mxCell id="-ovvbeKDPaPcIJPVTbLh-2" value="" style="whiteSpace=wrap;html=1;aspect=fixed;" vertex="1" parent="1">
          <mxGeometry x="110" y="230" width="180" height="180" as="geometry" />
        </mxCell>
        <mxCell id="-ovvbeKDPaPcIJPVTbLh-3" value="" style="whiteSpace=wrap;html=1;aspect=fixed;" vertex="1" parent="1">
          <mxGeometry x="390" y="250" width="80" height="80" as="geometry" />
        </mxCell>
        <mxCell id="-ovvbeKDPaPcIJPVTbLh-4" value="APS Container" style="whiteSpace=wrap;html=1;aspect=fixed;align=left;verticalAlign=top;" vertex="1" parent="1">
          <mxGeometry x="85" y="670" width="220" height="220" as="geometry" />
        </mxCell>
        <mxCell id="-ovvbeKDPaPcIJPVTbLh-6" value="APFSï¼ˆApple File System)&amp;nbsp;" style="text;html=1;align=center;verticalAlign=middle;rounded=0;resizeWidth=1;autosize=1;" vertex="1" parent="1">
          <mxGeometry x="70" y="620" width="170" height="30" as="geometry" />
        </mxCell>
        <mxCell id="-ovvbeKDPaPcIJPVTbLh-7" value="APFS Volume" style="shape=cylinder3;whiteSpace=wrap;html=1;boundedLbl=1;backgroundOutline=1;size=15;" vertex="1" parent="1">
          <mxGeometry x="110" y="730" width="60" height="80" as="geometry" />
        </mxCell>
        <mxCell id="-ovvbeKDPaPcIJPVTbLh-8" value="APFS Volume" style="shape=cylinder3;whiteSpace=wrap;html=1;boundedLbl=1;backgroundOutline=1;size=15;" vertex="1" parent="1">
          <mxGeometry x="200" y="730" width="60" height="80" as="geometry" />
        </mxCell>
        <mxCell id="-ovvbeKDPaPcIJPVTbLh-9" value="" style="shape=cylinder3;whiteSpace=wrap;html=1;boundedLbl=1;backgroundOutline=1;size=15;dashed=1;strokeWidth=2;" vertex="1" parent="1">
          <mxGeometry x="425" y="350" width="210" height="270" as="geometry" />
        </mxCell>
        <mxCell id="-ovvbeKDPaPcIJPVTbLh-10" value="" style="ellipse;whiteSpace=wrap;html=1;dashed=1;dashPattern=12 12;" vertex="1" parent="1">
          <mxGeometry x="425" y="384" width="210" height="30" as="geometry" />
        </mxCell>
        <mxCell id="-ovvbeKDPaPcIJPVTbLh-11" value="" style="ellipse;whiteSpace=wrap;html=1;" vertex="1" parent="1">
          <mxGeometry x="425" y="419" width="210" height="30" as="geometry" />
        </mxCell>
        <mxCell id="-ovvbeKDPaPcIJPVTbLh-13" value="" style="ellipse;whiteSpace=wrap;html=1;" vertex="1" parent="1">
          <mxGeometry x="425" y="487" width="210" height="30" as="geometry" />
        </mxCell>
        <mxCell id="-ovvbeKDPaPcIJPVTbLh-14" value="" style="ellipse;whiteSpace=wrap;html=1;" vertex="1" parent="1">
          <mxGeometry x="425" y="521" width="210" height="30" as="geometry" />
        </mxCell>
        <mxCell id="-ovvbeKDPaPcIJPVTbLh-15" value="" style="ellipse;whiteSpace=wrap;html=1;" vertex="1" parent="1">
          <mxGeometry x="425" y="556" width="210" height="30" as="geometry" />
        </mxCell>
        <mxCell id="-ovvbeKDPaPcIJPVTbLh-17" value="" style="ellipse;whiteSpace=wrap;html=1;" vertex="1" parent="1">
          <mxGeometry x="425" y="590" width="210" height="30" as="geometry" />
        </mxCell>
        <mxCell id="-ovvbeKDPaPcIJPVTbLh-18" value="" style="ellipse;whiteSpace=wrap;html=1;" vertex="1" parent="1">
          <mxGeometry x="425" y="349" width="210" height="31" as="geometry" />
        </mxCell>
        <mxCell id="-ovvbeKDPaPcIJPVTbLh-43" value="" style="ellipse;whiteSpace=wrap;html=1;container=0;fillColor=none;" vertex="1" parent="1">
          <mxGeometry x="900" y="640" width="80" height="80" as="geometry" />
        </mxCell>
        <mxCell id="-ovvbeKDPaPcIJPVTbLh-44" value="" style="endArrow=none;html=1;rounded=0;exitX=0;exitY=0.5;exitDx=0;exitDy=0;entryX=1;entryY=0.5;entryDx=0;entryDy=0;dashed=1;strokeWidth=0.8;" edge="1" parent="1" source="-ovvbeKDPaPcIJPVTbLh-43" target="-ovvbeKDPaPcIJPVTbLh-43">
          <mxGeometry width="50" height="50" relative="1" as="geometry">
            <mxPoint x="900" y="730" as="sourcePoint" />
            <mxPoint x="956.25" y="673.75" as="targetPoint" />
          </mxGeometry>
        </mxCell>
        <mxCell id="-ovvbeKDPaPcIJPVTbLh-45" value="" style="endArrow=none;html=1;rounded=0;exitX=0.5;exitY=0;exitDx=0;exitDy=0;entryX=0.5;entryY=1;entryDx=0;entryDy=0;dashed=1;strokeWidth=0.8;" edge="1" parent="1" source="-ovvbeKDPaPcIJPVTbLh-43" target="-ovvbeKDPaPcIJPVTbLh-43">
          <mxGeometry width="50" height="50" relative="1" as="geometry">
            <mxPoint x="911.25" y="696.25" as="sourcePoint" />
            <mxPoint x="1001.25" y="696.25" as="targetPoint" />
          </mxGeometry>
        </mxCell>
        <mxCell id="-ovvbeKDPaPcIJPVTbLh-46" value="" style="endArrow=none;html=1;rounded=0;exitX=0;exitY=1;exitDx=0;exitDy=0;entryX=1;entryY=0;entryDx=0;entryDy=0;dashed=1;strokeWidth=0.8;" edge="1" parent="1" source="-ovvbeKDPaPcIJPVTbLh-43" target="-ovvbeKDPaPcIJPVTbLh-43">
          <mxGeometry width="50" height="50" relative="1" as="geometry">
            <mxPoint x="913.5" y="716.5" as="sourcePoint" />
            <mxPoint x="976.5" y="653.5" as="targetPoint" />
          </mxGeometry>
        </mxCell>
        <mxCell id="-ovvbeKDPaPcIJPVTbLh-47" value="" style="endArrow=none;html=1;rounded=0;exitX=0;exitY=0;exitDx=0;exitDy=0;entryX=1;entryY=1;entryDx=0;entryDy=0;dashed=1;strokeWidth=0.8;" edge="1" parent="1" source="-ovvbeKDPaPcIJPVTbLh-43" target="-ovvbeKDPaPcIJPVTbLh-43">
          <mxGeometry width="50" height="50" relative="1" as="geometry">
            <mxPoint x="913.5" y="653.5" as="sourcePoint" />
            <mxPoint x="976.5" y="716.5" as="targetPoint" />
          </mxGeometry>
        </mxCell>
        <mxCell id="-ovvbeKDPaPcIJPVTbLh-136" value="" style="group;movable=1;resizable=1;rotatable=1;deletable=1;editable=1;locked=0;connectable=1;pointerEvents=0;align=center;verticalAlign=top;fontFamily=Helvetica;fontSize=12;fontColor=default;fillColor=default;gradientColor=none;" vertex="1" connectable="0" parent="1">
          <mxGeometry x="425" y="910" width="222.5" height="30" as="geometry" />
        </mxCell>
        <mxCell id="-ovvbeKDPaPcIJPVTbLh-137" value="" style="ellipse;whiteSpace=wrap;html=1;container=0;fillColor=default;movable=1;resizable=1;rotatable=1;deletable=1;editable=1;locked=0;connectable=1;pointerEvents=0;align=center;verticalAlign=top;fontFamily=Helvetica;fontSize=12;fontColor=default;gradientColor=none;" vertex="1" parent="-ovvbeKDPaPcIJPVTbLh-136">
          <mxGeometry width="215" height="30" as="geometry" />
        </mxCell>
        <mxCell id="-ovvbeKDPaPcIJPVTbLh-138" value="" style="endArrow=none;html=1;rounded=0;exitX=0;exitY=0.5;exitDx=0;exitDy=0;entryX=1;entryY=0.5;entryDx=0;entryDy=0;dashed=1;strokeWidth=0.8;movable=1;resizable=1;rotatable=1;deletable=1;editable=1;locked=0;connectable=1;pointerEvents=0;align=center;verticalAlign=top;fontFamily=Helvetica;fontSize=12;fontColor=default;fillColor=default;gradientColor=none;" edge="1" parent="-ovvbeKDPaPcIJPVTbLh-136" source="-ovvbeKDPaPcIJPVTbLh-137" target="-ovvbeKDPaPcIJPVTbLh-137">
          <mxGeometry width="50" height="50" relative="1" as="geometry">
            <mxPoint y="90" as="sourcePoint" />
            <mxPoint x="56.25" y="33.75" as="targetPoint" />
          </mxGeometry>
        </mxCell>
        <mxCell id="-ovvbeKDPaPcIJPVTbLh-139" value="" style="endArrow=none;html=1;rounded=0;exitX=0.5;exitY=0;exitDx=0;exitDy=0;entryX=0.5;entryY=1;entryDx=0;entryDy=0;dashed=1;strokeWidth=0.8;movable=1;resizable=1;rotatable=1;deletable=1;editable=1;locked=0;connectable=1;pointerEvents=0;align=center;verticalAlign=top;fontFamily=Helvetica;fontSize=12;fontColor=default;fillColor=default;gradientColor=none;" edge="1" parent="-ovvbeKDPaPcIJPVTbLh-136" source="-ovvbeKDPaPcIJPVTbLh-137" target="-ovvbeKDPaPcIJPVTbLh-137">
          <mxGeometry width="50" height="50" relative="1" as="geometry">
            <mxPoint x="11.25" y="56.25" as="sourcePoint" />
            <mxPoint x="101.25" y="56.25" as="targetPoint" />
          </mxGeometry>
        </mxCell>
        <mxCell id="-ovvbeKDPaPcIJPVTbLh-140" value="" style="endArrow=none;html=1;rounded=0;exitX=0;exitY=1;exitDx=0;exitDy=0;entryX=1;entryY=0;entryDx=0;entryDy=0;dashed=1;strokeWidth=0.8;movable=1;resizable=1;rotatable=1;deletable=1;editable=1;locked=0;connectable=1;pointerEvents=0;align=center;verticalAlign=top;fontFamily=Helvetica;fontSize=12;fontColor=default;fillColor=default;gradientColor=none;" edge="1" parent="-ovvbeKDPaPcIJPVTbLh-136" source="-ovvbeKDPaPcIJPVTbLh-137" target="-ovvbeKDPaPcIJPVTbLh-137">
          <mxGeometry width="50" height="50" relative="1" as="geometry">
            <mxPoint x="13.5" y="76.5" as="sourcePoint" />
            <mxPoint x="76.5" y="13.5" as="targetPoint" />
          </mxGeometry>
        </mxCell>
        <mxCell id="-ovvbeKDPaPcIJPVTbLh-141" value="" style="endArrow=none;html=1;rounded=0;exitX=0;exitY=0;exitDx=0;exitDy=0;entryX=1;entryY=1;entryDx=0;entryDy=0;dashed=1;strokeWidth=0.8;movable=1;resizable=1;rotatable=1;deletable=1;editable=1;locked=0;connectable=1;pointerEvents=0;align=center;verticalAlign=top;fontFamily=Helvetica;fontSize=12;fontColor=default;fillColor=default;gradientColor=none;" edge="1" parent="-ovvbeKDPaPcIJPVTbLh-136" source="-ovvbeKDPaPcIJPVTbLh-137" target="-ovvbeKDPaPcIJPVTbLh-137">
          <mxGeometry width="50" height="50" relative="1" as="geometry">
            <mxPoint x="13.5" y="13.5" as="sourcePoint" />
            <mxPoint x="76.5" y="76.5" as="targetPoint" />
          </mxGeometry>
        </mxCell>
        <mxCell id="-ovvbeKDPaPcIJPVTbLh-142" value="" style="ellipse;whiteSpace=wrap;html=1;container=0;fillColor=default;aspect=fixed;movable=1;resizable=1;rotatable=1;deletable=1;editable=1;locked=0;connectable=1;pointerEvents=0;align=center;verticalAlign=top;fontFamily=Helvetica;fontSize=12;fontColor=default;gradientColor=none;" vertex="1" parent="-ovvbeKDPaPcIJPVTbLh-136">
          <mxGeometry x="71.65999999999997" y="10" width="71.67" height="10" as="geometry" />
        </mxCell>
        <mxCell id="-ovvbeKDPaPcIJPVTbLh-156" value="" style="shape=cylinder3;whiteSpace=wrap;html=1;boundedLbl=1;backgroundOutline=1;size=3.111111111111086;fillColor=#f5f5f5;fontColor=#333333;strokeColor=#666666;" vertex="1" parent="-ovvbeKDPaPcIJPVTbLh-136">
          <mxGeometry x="102.5" y="-30" width="10" height="50" as="geometry" />
        </mxCell>
        <mxCell id="-ovvbeKDPaPcIJPVTbLh-129" value="" style="group;movable=1;resizable=1;rotatable=1;deletable=1;editable=1;locked=0;connectable=1;pointerEvents=0;align=center;verticalAlign=top;fontFamily=Helvetica;fontSize=12;fontColor=default;fillColor=default;gradientColor=none;" vertex="1" connectable="0" parent="1">
          <mxGeometry x="425" y="866" width="222.5" height="34" as="geometry" />
        </mxCell>
        <mxCell id="-ovvbeKDPaPcIJPVTbLh-130" value="" style="ellipse;whiteSpace=wrap;html=1;container=0;fillColor=default;movable=1;resizable=1;rotatable=1;deletable=1;editable=1;locked=0;connectable=1;pointerEvents=0;align=center;verticalAlign=top;fontFamily=Helvetica;fontSize=12;fontColor=default;gradientColor=none;" vertex="1" parent="-ovvbeKDPaPcIJPVTbLh-129">
          <mxGeometry width="215" height="30" as="geometry" />
        </mxCell>
        <mxCell id="-ovvbeKDPaPcIJPVTbLh-131" value="" style="endArrow=none;html=1;rounded=0;exitX=0;exitY=0.5;exitDx=0;exitDy=0;entryX=1;entryY=0.5;entryDx=0;entryDy=0;dashed=1;strokeWidth=0.8;movable=1;resizable=1;rotatable=1;deletable=1;editable=1;locked=0;connectable=1;pointerEvents=0;align=center;verticalAlign=top;fontFamily=Helvetica;fontSize=12;fontColor=default;fillColor=default;gradientColor=none;" edge="1" parent="-ovvbeKDPaPcIJPVTbLh-129" source="-ovvbeKDPaPcIJPVTbLh-130" target="-ovvbeKDPaPcIJPVTbLh-130">
          <mxGeometry width="50" height="50" relative="1" as="geometry">
            <mxPoint y="90" as="sourcePoint" />
            <mxPoint x="56.25" y="33.75" as="targetPoint" />
          </mxGeometry>
        </mxCell>
        <mxCell id="-ovvbeKDPaPcIJPVTbLh-132" value="" style="endArrow=none;html=1;rounded=0;exitX=0.5;exitY=0;exitDx=0;exitDy=0;entryX=0.5;entryY=1;entryDx=0;entryDy=0;dashed=1;strokeWidth=0.8;movable=1;resizable=1;rotatable=1;deletable=1;editable=1;locked=0;connectable=1;pointerEvents=0;align=center;verticalAlign=top;fontFamily=Helvetica;fontSize=12;fontColor=default;fillColor=default;gradientColor=none;" edge="1" parent="-ovvbeKDPaPcIJPVTbLh-129" source="-ovvbeKDPaPcIJPVTbLh-130" target="-ovvbeKDPaPcIJPVTbLh-130">
          <mxGeometry width="50" height="50" relative="1" as="geometry">
            <mxPoint x="11.25" y="56.25" as="sourcePoint" />
            <mxPoint x="101.25" y="56.25" as="targetPoint" />
          </mxGeometry>
        </mxCell>
        <mxCell id="-ovvbeKDPaPcIJPVTbLh-133" value="" style="endArrow=none;html=1;rounded=0;exitX=0;exitY=1;exitDx=0;exitDy=0;entryX=1;entryY=0;entryDx=0;entryDy=0;dashed=1;strokeWidth=0.8;movable=1;resizable=1;rotatable=1;deletable=1;editable=1;locked=0;connectable=1;pointerEvents=0;align=center;verticalAlign=top;fontFamily=Helvetica;fontSize=12;fontColor=default;fillColor=default;gradientColor=none;" edge="1" parent="-ovvbeKDPaPcIJPVTbLh-129" source="-ovvbeKDPaPcIJPVTbLh-130" target="-ovvbeKDPaPcIJPVTbLh-130">
          <mxGeometry width="50" height="50" relative="1" as="geometry">
            <mxPoint x="13.5" y="76.5" as="sourcePoint" />
            <mxPoint x="76.5" y="13.5" as="targetPoint" />
          </mxGeometry>
        </mxCell>
        <mxCell id="-ovvbeKDPaPcIJPVTbLh-134" value="" style="endArrow=none;html=1;rounded=0;exitX=0;exitY=0;exitDx=0;exitDy=0;entryX=1;entryY=1;entryDx=0;entryDy=0;dashed=1;strokeWidth=0.8;movable=1;resizable=1;rotatable=1;deletable=1;editable=1;locked=0;connectable=1;pointerEvents=0;align=center;verticalAlign=top;fontFamily=Helvetica;fontSize=12;fontColor=default;fillColor=default;gradientColor=none;" edge="1" parent="-ovvbeKDPaPcIJPVTbLh-129" source="-ovvbeKDPaPcIJPVTbLh-130" target="-ovvbeKDPaPcIJPVTbLh-130">
          <mxGeometry width="50" height="50" relative="1" as="geometry">
            <mxPoint x="13.5" y="13.5" as="sourcePoint" />
            <mxPoint x="76.5" y="76.5" as="targetPoint" />
          </mxGeometry>
        </mxCell>
        <mxCell id="-ovvbeKDPaPcIJPVTbLh-135" value="" style="ellipse;whiteSpace=wrap;html=1;container=0;fillColor=default;aspect=fixed;movable=1;resizable=1;rotatable=1;deletable=1;editable=1;locked=0;connectable=1;pointerEvents=0;align=center;verticalAlign=top;fontFamily=Helvetica;fontSize=12;fontColor=default;gradientColor=none;" vertex="1" parent="-ovvbeKDPaPcIJPVTbLh-129">
          <mxGeometry x="71.65999999999997" y="10" width="71.67" height="10" as="geometry" />
        </mxCell>
        <mxCell id="-ovvbeKDPaPcIJPVTbLh-157" value="" style="shape=cylinder3;whiteSpace=wrap;html=1;boundedLbl=1;backgroundOutline=1;size=3.111111111111086;fillColor=#f5f5f5;fontColor=#333333;strokeColor=#666666;" vertex="1" parent="1">
          <mxGeometry x="527.5" y="833" width="10" height="50" as="geometry" />
        </mxCell>
        <mxCell id="-ovvbeKDPaPcIJPVTbLh-122" value="" style="group;movable=1;resizable=1;rotatable=1;deletable=1;editable=1;locked=0;connectable=1;pointerEvents=0;align=center;verticalAlign=top;fontFamily=Helvetica;fontSize=12;fontColor=default;fillColor=default;gradientColor=none;" vertex="1" connectable="0" parent="1">
          <mxGeometry x="425" y="823" width="215" height="30" as="geometry" />
        </mxCell>
        <mxCell id="-ovvbeKDPaPcIJPVTbLh-123" value="" style="ellipse;whiteSpace=wrap;html=1;container=0;fillColor=default;movable=1;resizable=1;rotatable=1;deletable=1;editable=1;locked=0;connectable=1;pointerEvents=0;align=center;verticalAlign=top;fontFamily=Helvetica;fontSize=12;fontColor=default;gradientColor=none;" vertex="1" parent="-ovvbeKDPaPcIJPVTbLh-122">
          <mxGeometry width="215" height="30" as="geometry" />
        </mxCell>
        <mxCell id="-ovvbeKDPaPcIJPVTbLh-124" value="" style="endArrow=none;html=1;rounded=0;exitX=0;exitY=0.5;exitDx=0;exitDy=0;entryX=1;entryY=0.5;entryDx=0;entryDy=0;dashed=1;strokeWidth=0.8;movable=1;resizable=1;rotatable=1;deletable=1;editable=1;locked=0;connectable=1;pointerEvents=0;align=center;verticalAlign=top;fontFamily=Helvetica;fontSize=12;fontColor=default;fillColor=default;gradientColor=none;" edge="1" parent="-ovvbeKDPaPcIJPVTbLh-122" source="-ovvbeKDPaPcIJPVTbLh-123" target="-ovvbeKDPaPcIJPVTbLh-123">
          <mxGeometry width="50" height="50" relative="1" as="geometry">
            <mxPoint y="90" as="sourcePoint" />
            <mxPoint x="56.25" y="33.75" as="targetPoint" />
          </mxGeometry>
        </mxCell>
        <mxCell id="-ovvbeKDPaPcIJPVTbLh-125" value="" style="endArrow=none;html=1;rounded=0;exitX=0.5;exitY=0;exitDx=0;exitDy=0;entryX=0.5;entryY=1;entryDx=0;entryDy=0;dashed=1;strokeWidth=0.8;movable=1;resizable=1;rotatable=1;deletable=1;editable=1;locked=0;connectable=1;pointerEvents=0;align=center;verticalAlign=top;fontFamily=Helvetica;fontSize=12;fontColor=default;fillColor=default;gradientColor=none;" edge="1" parent="-ovvbeKDPaPcIJPVTbLh-122" source="-ovvbeKDPaPcIJPVTbLh-123" target="-ovvbeKDPaPcIJPVTbLh-123">
          <mxGeometry width="50" height="50" relative="1" as="geometry">
            <mxPoint x="11.25" y="56.25" as="sourcePoint" />
            <mxPoint x="101.25" y="56.25" as="targetPoint" />
          </mxGeometry>
        </mxCell>
        <mxCell id="-ovvbeKDPaPcIJPVTbLh-126" value="" style="endArrow=none;html=1;rounded=0;exitX=0;exitY=1;exitDx=0;exitDy=0;entryX=1;entryY=0;entryDx=0;entryDy=0;dashed=1;strokeWidth=0.8;movable=1;resizable=1;rotatable=1;deletable=1;editable=1;locked=0;connectable=1;pointerEvents=0;align=center;verticalAlign=top;fontFamily=Helvetica;fontSize=12;fontColor=default;fillColor=default;gradientColor=none;" edge="1" parent="-ovvbeKDPaPcIJPVTbLh-122" source="-ovvbeKDPaPcIJPVTbLh-123" target="-ovvbeKDPaPcIJPVTbLh-123">
          <mxGeometry width="50" height="50" relative="1" as="geometry">
            <mxPoint x="13.5" y="76.5" as="sourcePoint" />
            <mxPoint x="76.5" y="13.5" as="targetPoint" />
          </mxGeometry>
        </mxCell>
        <mxCell id="-ovvbeKDPaPcIJPVTbLh-127" value="" style="endArrow=none;html=1;rounded=0;exitX=0;exitY=0;exitDx=0;exitDy=0;entryX=1;entryY=1;entryDx=0;entryDy=0;dashed=1;strokeWidth=0.8;movable=1;resizable=1;rotatable=1;deletable=1;editable=1;locked=0;connectable=1;pointerEvents=0;align=center;verticalAlign=top;fontFamily=Helvetica;fontSize=12;fontColor=default;fillColor=default;gradientColor=none;" edge="1" parent="-ovvbeKDPaPcIJPVTbLh-122" source="-ovvbeKDPaPcIJPVTbLh-123" target="-ovvbeKDPaPcIJPVTbLh-123">
          <mxGeometry width="50" height="50" relative="1" as="geometry">
            <mxPoint x="13.5" y="13.5" as="sourcePoint" />
            <mxPoint x="76.5" y="76.5" as="targetPoint" />
          </mxGeometry>
        </mxCell>
        <mxCell id="-ovvbeKDPaPcIJPVTbLh-128" value="" style="ellipse;whiteSpace=wrap;html=1;container=0;fillColor=default;aspect=fixed;movable=1;resizable=1;rotatable=1;deletable=1;editable=1;locked=0;connectable=1;pointerEvents=0;align=center;verticalAlign=top;fontFamily=Helvetica;fontSize=12;fontColor=default;gradientColor=none;" vertex="1" parent="-ovvbeKDPaPcIJPVTbLh-122">
          <mxGeometry x="71.65999999999997" y="10" width="71.67" height="10" as="geometry" />
        </mxCell>
        <mxCell id="-ovvbeKDPaPcIJPVTbLh-188" value="" style="shape=cylinder3;whiteSpace=wrap;html=1;boundedLbl=1;backgroundOutline=1;size=3.111111111111086;fillColor=#f5f5f5;fontColor=#333333;strokeColor=#666666;" vertex="1" parent="1">
          <mxGeometry x="527.5" y="793" width="10" height="50" as="geometry" />
        </mxCell>
        <mxCell id="-ovvbeKDPaPcIJPVTbLh-189" value="" style="group;movable=1;resizable=1;rotatable=1;deletable=1;editable=1;locked=0;connectable=1;pointerEvents=0;align=center;verticalAlign=top;fontFamily=Helvetica;fontSize=12;fontColor=default;fillColor=default;gradientColor=none;" vertex="1" connectable="0" parent="1">
          <mxGeometry x="425" y="781" width="215" height="30" as="geometry" />
        </mxCell>
        <mxCell id="-ovvbeKDPaPcIJPVTbLh-190" value="" style="ellipse;whiteSpace=wrap;html=1;container=0;fillColor=default;movable=1;resizable=1;rotatable=1;deletable=1;editable=1;locked=0;connectable=1;pointerEvents=0;align=center;verticalAlign=top;fontFamily=Helvetica;fontSize=12;fontColor=default;gradientColor=none;" vertex="1" parent="-ovvbeKDPaPcIJPVTbLh-189">
          <mxGeometry width="215" height="30" as="geometry" />
        </mxCell>
        <mxCell id="-ovvbeKDPaPcIJPVTbLh-191" value="" style="endArrow=none;html=1;rounded=0;exitX=0;exitY=0.5;exitDx=0;exitDy=0;entryX=1;entryY=0.5;entryDx=0;entryDy=0;dashed=1;strokeWidth=0.8;movable=1;resizable=1;rotatable=1;deletable=1;editable=1;locked=0;connectable=1;pointerEvents=0;align=center;verticalAlign=top;fontFamily=Helvetica;fontSize=12;fontColor=default;fillColor=default;gradientColor=none;" edge="1" parent="-ovvbeKDPaPcIJPVTbLh-189" source="-ovvbeKDPaPcIJPVTbLh-190" target="-ovvbeKDPaPcIJPVTbLh-190">
          <mxGeometry width="50" height="50" relative="1" as="geometry">
            <mxPoint y="90" as="sourcePoint" />
            <mxPoint x="56.25" y="33.75" as="targetPoint" />
          </mxGeometry>
        </mxCell>
        <mxCell id="-ovvbeKDPaPcIJPVTbLh-192" value="" style="endArrow=none;html=1;rounded=0;exitX=0.5;exitY=0;exitDx=0;exitDy=0;entryX=0.5;entryY=1;entryDx=0;entryDy=0;dashed=1;strokeWidth=0.8;movable=1;resizable=1;rotatable=1;deletable=1;editable=1;locked=0;connectable=1;pointerEvents=0;align=center;verticalAlign=top;fontFamily=Helvetica;fontSize=12;fontColor=default;fillColor=default;gradientColor=none;" edge="1" parent="-ovvbeKDPaPcIJPVTbLh-189" source="-ovvbeKDPaPcIJPVTbLh-190" target="-ovvbeKDPaPcIJPVTbLh-190">
          <mxGeometry width="50" height="50" relative="1" as="geometry">
            <mxPoint x="11.25" y="56.25" as="sourcePoint" />
            <mxPoint x="101.25" y="56.25" as="targetPoint" />
          </mxGeometry>
        </mxCell>
        <mxCell id="-ovvbeKDPaPcIJPVTbLh-193" value="" style="endArrow=none;html=1;rounded=0;exitX=0;exitY=1;exitDx=0;exitDy=0;entryX=1;entryY=0;entryDx=0;entryDy=0;dashed=1;strokeWidth=0.8;movable=1;resizable=1;rotatable=1;deletable=1;editable=1;locked=0;connectable=1;pointerEvents=0;align=center;verticalAlign=top;fontFamily=Helvetica;fontSize=12;fontColor=default;fillColor=default;gradientColor=none;" edge="1" parent="-ovvbeKDPaPcIJPVTbLh-189" source="-ovvbeKDPaPcIJPVTbLh-190" target="-ovvbeKDPaPcIJPVTbLh-190">
          <mxGeometry width="50" height="50" relative="1" as="geometry">
            <mxPoint x="13.5" y="76.5" as="sourcePoint" />
            <mxPoint x="76.5" y="13.5" as="targetPoint" />
          </mxGeometry>
        </mxCell>
        <mxCell id="-ovvbeKDPaPcIJPVTbLh-194" value="" style="endArrow=none;html=1;rounded=0;exitX=0;exitY=0;exitDx=0;exitDy=0;entryX=1;entryY=1;entryDx=0;entryDy=0;dashed=1;strokeWidth=0.8;movable=1;resizable=1;rotatable=1;deletable=1;editable=1;locked=0;connectable=1;pointerEvents=0;align=center;verticalAlign=top;fontFamily=Helvetica;fontSize=12;fontColor=default;fillColor=default;gradientColor=none;" edge="1" parent="-ovvbeKDPaPcIJPVTbLh-189" source="-ovvbeKDPaPcIJPVTbLh-190" target="-ovvbeKDPaPcIJPVTbLh-190">
          <mxGeometry width="50" height="50" relative="1" as="geometry">
            <mxPoint x="13.5" y="13.5" as="sourcePoint" />
            <mxPoint x="76.5" y="76.5" as="targetPoint" />
          </mxGeometry>
        </mxCell>
        <mxCell id="-ovvbeKDPaPcIJPVTbLh-195" value="" style="ellipse;whiteSpace=wrap;html=1;container=0;fillColor=default;aspect=fixed;movable=1;resizable=1;rotatable=1;deletable=1;editable=1;locked=0;connectable=1;pointerEvents=0;align=center;verticalAlign=top;fontFamily=Helvetica;fontSize=12;fontColor=default;gradientColor=none;" vertex="1" parent="-ovvbeKDPaPcIJPVTbLh-189">
          <mxGeometry x="71.65999999999997" y="10" width="71.67" height="10" as="geometry" />
        </mxCell>
        <mxCell id="-ovvbeKDPaPcIJPVTbLh-196" value="" style="shape=cylinder3;whiteSpace=wrap;html=1;boundedLbl=1;backgroundOutline=1;size=3.111111111111086;fillColor=#f5f5f5;fontColor=#333333;strokeColor=#666666;" vertex="1" parent="1">
          <mxGeometry x="527.5" y="748" width="10" height="50" as="geometry" />
        </mxCell>
        <mxCell id="-ovvbeKDPaPcIJPVTbLh-197" value="" style="group;movable=1;resizable=1;rotatable=1;deletable=1;editable=1;locked=0;connectable=1;pointerEvents=0;align=center;verticalAlign=top;fontFamily=Helvetica;fontSize=12;fontColor=default;fillColor=default;gradientColor=none;" vertex="1" connectable="0" parent="1">
          <mxGeometry x="425" y="738" width="215" height="30" as="geometry" />
        </mxCell>
        <mxCell id="-ovvbeKDPaPcIJPVTbLh-198" value="" style="ellipse;whiteSpace=wrap;html=1;container=0;fillColor=default;movable=1;resizable=1;rotatable=1;deletable=1;editable=1;locked=0;connectable=1;pointerEvents=0;align=center;verticalAlign=top;fontFamily=Helvetica;fontSize=12;fontColor=default;gradientColor=none;" vertex="1" parent="-ovvbeKDPaPcIJPVTbLh-197">
          <mxGeometry width="215" height="30" as="geometry" />
        </mxCell>
        <mxCell id="-ovvbeKDPaPcIJPVTbLh-199" value="" style="endArrow=none;html=1;rounded=0;exitX=0;exitY=0.5;exitDx=0;exitDy=0;entryX=1;entryY=0.5;entryDx=0;entryDy=0;dashed=1;strokeWidth=0.8;movable=1;resizable=1;rotatable=1;deletable=1;editable=1;locked=0;connectable=1;pointerEvents=0;align=center;verticalAlign=top;fontFamily=Helvetica;fontSize=12;fontColor=default;fillColor=default;gradientColor=none;" edge="1" parent="-ovvbeKDPaPcIJPVTbLh-197" source="-ovvbeKDPaPcIJPVTbLh-198" target="-ovvbeKDPaPcIJPVTbLh-198">
          <mxGeometry width="50" height="50" relative="1" as="geometry">
            <mxPoint y="90" as="sourcePoint" />
            <mxPoint x="56.25" y="33.75" as="targetPoint" />
          </mxGeometry>
        </mxCell>
        <mxCell id="-ovvbeKDPaPcIJPVTbLh-200" value="" style="endArrow=none;html=1;rounded=0;exitX=0.5;exitY=0;exitDx=0;exitDy=0;entryX=0.5;entryY=1;entryDx=0;entryDy=0;dashed=1;strokeWidth=0.8;movable=1;resizable=1;rotatable=1;deletable=1;editable=1;locked=0;connectable=1;pointerEvents=0;align=center;verticalAlign=top;fontFamily=Helvetica;fontSize=12;fontColor=default;fillColor=default;gradientColor=none;" edge="1" parent="-ovvbeKDPaPcIJPVTbLh-197" source="-ovvbeKDPaPcIJPVTbLh-198" target="-ovvbeKDPaPcIJPVTbLh-198">
          <mxGeometry width="50" height="50" relative="1" as="geometry">
            <mxPoint x="11.25" y="56.25" as="sourcePoint" />
            <mxPoint x="101.25" y="56.25" as="targetPoint" />
          </mxGeometry>
        </mxCell>
        <mxCell id="-ovvbeKDPaPcIJPVTbLh-201" value="" style="endArrow=none;html=1;rounded=0;exitX=0;exitY=1;exitDx=0;exitDy=0;entryX=1;entryY=0;entryDx=0;entryDy=0;dashed=1;strokeWidth=0.8;movable=1;resizable=1;rotatable=1;deletable=1;editable=1;locked=0;connectable=1;pointerEvents=0;align=center;verticalAlign=top;fontFamily=Helvetica;fontSize=12;fontColor=default;fillColor=default;gradientColor=none;" edge="1" parent="-ovvbeKDPaPcIJPVTbLh-197" source="-ovvbeKDPaPcIJPVTbLh-198" target="-ovvbeKDPaPcIJPVTbLh-198">
          <mxGeometry width="50" height="50" relative="1" as="geometry">
            <mxPoint x="13.5" y="76.5" as="sourcePoint" />
            <mxPoint x="76.5" y="13.5" as="targetPoint" />
          </mxGeometry>
        </mxCell>
        <mxCell id="-ovvbeKDPaPcIJPVTbLh-202" value="" style="endArrow=none;html=1;rounded=0;exitX=0;exitY=0;exitDx=0;exitDy=0;entryX=1;entryY=1;entryDx=0;entryDy=0;dashed=1;strokeWidth=0.8;movable=1;resizable=1;rotatable=1;deletable=1;editable=1;locked=0;connectable=1;pointerEvents=0;align=center;verticalAlign=top;fontFamily=Helvetica;fontSize=12;fontColor=default;fillColor=default;gradientColor=none;" edge="1" parent="-ovvbeKDPaPcIJPVTbLh-197" source="-ovvbeKDPaPcIJPVTbLh-198" target="-ovvbeKDPaPcIJPVTbLh-198">
          <mxGeometry width="50" height="50" relative="1" as="geometry">
            <mxPoint x="13.5" y="13.5" as="sourcePoint" />
            <mxPoint x="76.5" y="76.5" as="targetPoint" />
          </mxGeometry>
        </mxCell>
        <mxCell id="-ovvbeKDPaPcIJPVTbLh-203" value="" style="ellipse;whiteSpace=wrap;html=1;container=0;fillColor=default;aspect=fixed;movable=1;resizable=1;rotatable=1;deletable=1;editable=1;locked=0;connectable=1;pointerEvents=0;align=center;verticalAlign=top;fontFamily=Helvetica;fontSize=12;fontColor=default;gradientColor=none;" vertex="1" parent="-ovvbeKDPaPcIJPVTbLh-197">
          <mxGeometry x="71.65999999999997" y="10" width="71.67" height="10" as="geometry" />
        </mxCell>
        <mxCell id="-ovvbeKDPaPcIJPVTbLh-204" value="" style="shape=cylinder3;whiteSpace=wrap;html=1;boundedLbl=1;backgroundOutline=1;size=3.111111111111086;fillColor=#f5f5f5;fontColor=#333333;strokeColor=#666666;" vertex="1" parent="-ovvbeKDPaPcIJPVTbLh-197">
          <mxGeometry x="102.5" y="-10" width="10" height="26" as="geometry" />
        </mxCell>
        <mxCell id="-ovvbeKDPaPcIJPVTbLh-208" value="" style="shape=cylinder3;whiteSpace=wrap;html=1;boundedLbl=1;backgroundOutline=1;size=15;fillColor=#f5f5f5;fontColor=#333333;strokeColor=#666666;opacity=30;" vertex="1" parent="1">
          <mxGeometry x="417.5" y="710" width="230" height="250" as="geometry" />
        </mxCell>
      </root>
    </mxGraphModel>
  </diagram>
</mxfile>
